<svg width="41" height="24" viewBox="0 0 41 24" fill="none" xmlns="http://www.w3.org/2000/svg">
<path d="M34.2938 14.9696L34.3079 14.9881L34.3235 15.0053C34.8892 15.6249 35.5131 16.2533 36.1351 16.8792L36.1509 16.8952C36.7704 17.5187 37.3882 18.1404 37.9613 18.7637C39.1179 20.0217 40.0347 21.2267 40.4039 22.3709C40.436 22.5768 40.4138 22.7224 40.3739 22.8259C40.3325 22.9335 40.2605 23.0256 40.1521 23.1054C39.9214 23.2753 39.5396 23.376 39.0881 23.376V23.3759L39.0801 23.376L33.6186 23.4636L33.5699 23.4643L33.5222 23.4745C33.2914 23.5238 32.9856 23.5066 32.5852 23.3779L32.585 23.3779C31.4287 23.0067 30.5798 22.2054 29.728 21.2371C29.5528 21.0378 29.3762 20.8295 29.196 20.617C28.526 19.8271 27.8077 18.9801 26.9377 18.3338C26.4947 18.0047 25.7792 17.6415 25.0344 18.0274C23.8236 18.6489 23.6864 19.8008 23.6482 20.7408C23.6422 20.888 23.6386 21.0288 23.6351 21.165C23.6266 21.4939 23.6189 21.796 23.5803 22.0956C23.5289 22.4943 23.4287 22.8145 23.2391 23.0687C22.9855 23.3295 22.5384 23.4468 21.9035 23.4585C21.5936 23.4643 21.2719 23.4449 20.9508 23.4226C20.9119 23.4199 20.8728 23.4171 20.8336 23.4143C20.5593 23.3948 20.2799 23.375 20.0365 23.375H20.0278L20.019 23.3753C15.1644 23.5453 11.0805 20.2355 7.78338 15.8211C4.50218 11.428 2.09602 6.06623 0.576137 2.38633C0.435343 1.99527 0.52148 1.845 0.576063 1.7852C0.662651 1.69032 0.889208 1.57635 1.34745 1.57637L1.35118 1.57634L7.15017 1.53307C7.63868 1.62728 8.02659 1.90155 8.17503 2.30237L8.17869 2.31224L8.18276 2.32196C8.6204 3.36636 9.64395 5.79244 10.8095 7.96083C11.3911 9.0427 12.0187 10.0808 12.6369 10.8548C12.9456 11.2413 13.2651 11.5789 13.5891 11.8238C13.9069 12.064 14.2786 12.2528 14.6815 12.2528C15.1152 12.2528 15.4548 12.0337 15.6979 11.7369C15.9318 11.4513 16.0958 11.0745 16.2153 10.6733C16.4554 9.86685 16.5592 8.8094 16.5792 7.743C16.5995 6.66894 16.5352 5.55113 16.4228 4.60723C16.3133 3.68721 16.1507 2.86339 15.9454 2.42234L15.9257 2.38015L15.8987 2.34231C15.5418 1.84375 15.0117 1.51696 14.3594 1.32812C14.4084 1.29765 14.4676 1.26496 14.5386 1.23082C14.7418 1.13314 15.0071 1.03965 15.3277 0.954244C15.9684 0.783557 16.7829 0.657474 17.6581 0.581992C19.4154 0.43044 21.3264 0.490122 22.4566 0.751565C22.8875 0.863523 23.1537 1.02611 23.2698 1.28885C23.4948 1.80359 23.5809 2.56529 23.5829 3.51456C23.5845 4.25145 23.5369 5.05124 23.4878 5.87385C23.4743 6.10029 23.4607 6.32845 23.448 6.55751C23.39 7.60304 23.351 8.66491 23.4442 9.5866C23.5358 10.4921 23.7634 11.3677 24.3289 11.9486L24.4271 12.0494L24.5635 12.0842C24.7566 12.1336 24.9836 12.184 25.226 12.1533C25.486 12.1204 25.7041 12.0042 25.9138 11.8393L25.9356 11.8222L25.9553 11.8027C28.5557 9.24449 30.3121 5.29328 31.7082 2.15245L31.7157 2.13572L31.7205 2.12485L31.7248 2.11376C31.7921 1.94076 31.867 1.84208 31.9421 1.77801C32.0096 1.7204 32.1009 1.67059 32.2386 1.63226C32.9942 1.63243 33.8111 1.63573 34.6537 1.63913C36.473 1.64647 38.4125 1.65429 40.1156 1.63225C40.2885 1.6326 40.377 1.6634 40.4165 1.68508C40.4458 1.70116 40.4608 1.71776 40.4742 1.75233C40.5166 1.8619 40.5225 2.11985 40.3696 2.59018C40.0751 3.49591 39.3385 4.76507 38.4319 6.13665C37.6426 7.33075 36.7511 8.56372 35.9678 9.64697C35.8594 9.79676 35.7532 9.94369 35.6496 10.0873C35.2251 10.6755 34.8428 11.2097 34.5474 11.6483C34.2655 12.0668 34.0285 12.4465 33.9278 12.7105C33.6139 13.4949 33.7639 14.2681 34.2938 14.9696Z" stroke="black"/>
</svg>
