<svg width="40" height="28" viewBox="0 0 40 28" fill="none" xmlns="http://www.w3.org/2000/svg">
<path d="M38.6933 4.51119L38.6939 4.51319C39.106 6.01894 39.3109 8.38154 39.4098 10.405C39.4589 11.409 39.4814 12.3163 39.4917 12.9727C39.4968 13.3008 39.4988 13.5659 39.4996 13.7487C39.5 13.84 39.5 13.9108 39.5 13.9586L39.4999 14.0127L39.4999 14.0262L39.4998 14.0295L39.4998 14.0302V14.0304L39.9998 14.0329L39.4998 14.0304V14.0329V14.0331V14.0339L39.4998 14.0372L39.4998 14.0506L39.4996 14.1045C39.4994 14.1521 39.499 14.2225 39.4982 14.3135C39.4966 14.4955 39.4935 14.7594 39.4871 15.086C39.4743 15.7395 39.4487 16.6431 39.3975 17.6433C39.2945 19.6577 39.0899 22.014 38.693 23.523C38.2779 25.0627 37.0624 26.2781 35.5222 26.6932C34.7906 26.8855 33.4658 27.0378 31.8489 27.1539C30.2449 27.2689 28.3943 27.3459 26.6368 27.3973C24.8802 27.4486 23.2206 27.4743 21.9999 27.4872C21.3897 27.4936 20.8893 27.4968 20.5417 27.4984C20.3679 27.4992 20.2323 27.4996 20.1402 27.4998L20.0354 27.5L20.0087 27.5L20.0021 27.5H20.0004H20C19.9999 27.5 19.9999 27.5 19.9999 28C19.9999 27.5 19.9999 27.5 19.9998 27.5H19.9994H19.9978L19.9911 27.5L19.9645 27.5L19.86 27.4998C19.7682 27.4996 19.6329 27.4992 19.4596 27.4983C19.1128 27.4967 18.6137 27.4933 18.0048 27.4866C16.7868 27.4733 15.1304 27.4466 13.3759 27.3932C11.6207 27.3397 9.77139 27.2597 8.16626 27.1401C6.54729 27.0194 5.21863 26.8609 4.47992 26.6609L4.4792 26.6607C2.93812 26.2459 1.72181 25.03 1.3067 23.4895C0.910063 21.9979 0.705366 19.6421 0.602315 17.6228C0.551167 16.6205 0.525573 15.7138 0.512776 15.0577C0.506379 14.7298 0.503185 14.4647 0.50159 14.2819C0.500792 14.1905 0.500395 14.1197 0.500197 14.0719L0.500024 14.0178L0.500003 14.0042L0.5 14.0009L0.5 14.0002L0.5 14L0 14L0.5 14L0.5 13.9998L0.5 13.9991L0.500003 13.9958L0.500024 13.9823L0.500197 13.9284C0.500395 13.8809 0.500792 13.8104 0.50159 13.7194C0.503184 13.5375 0.506379 13.2736 0.512775 12.9469C0.525572 12.2934 0.551164 11.3899 0.602313 10.3897C0.705324 8.37522 0.909951 6.01882 1.30688 4.50985C1.72235 2.96901 2.97183 1.72107 4.47902 1.3064C5.21099 1.11428 6.53512 0.962088 8.15097 0.846144C9.75491 0.731055 11.6055 0.654103 13.363 0.602728C15.1196 0.551375 16.7792 0.525686 17.9999 0.51284C18.6102 0.506418 19.1105 0.503208 19.4581 0.501603C19.6319 0.500801 19.7675 0.5004 19.8596 0.5002L19.9644 0.500025L19.9911 0.500003L19.9978 0.5L19.9994 0.5L19.9998 0.5C19.9999 0.5 19.9999 0.5 19.9999 0C19.9999 0.5 19.9999 0.5 20 0.5L20.0004 0.5L20.0021 0.5L20.0087 0.500003L20.0354 0.500026L20.1402 0.500208C20.2322 0.500416 20.3678 0.500833 20.5416 0.501667C20.8892 0.503336 21.3895 0.506674 21.9997 0.513352C23.2203 0.526712 24.8798 0.553426 26.6363 0.606828C28.3936 0.660254 30.2439 0.740274 31.8474 0.859937C33.4652 0.980664 34.7889 1.13909 35.5186 1.33875L35.5206 1.33929C37.0619 1.75416 38.2784 2.97037 38.6933 4.51119Z" stroke="black"/>
<path d="M16.5 8.8831L25.0282 14L16.5 19.1169V8.8831Z" stroke="black"/>
</svg>
