<?xml version="1.0" encoding="utf-8"?>
<!-- Generator: Adobe Illustrator 23.1.0, SVG Export Plug-In . SVG Version: 6.00 Build 0)  -->
<svg version="1.1" id="Слой_1" xmlns="http://www.w3.org/2000/svg" xmlns:xlink="http://www.w3.org/1999/xlink" x="0px" y="0px"
	 viewBox="0 0 34 34" style="enable-background:new 0 0 34 34;" xml:space="preserve">
<style type="text/css">
	.st0{fill:none;stroke:#000000;}
</style>
<path class="st0" d="M17.1,2.4C9,2.3,2.5,8.8,2.5,16.8c0,2.7,0.8,5.4,2.2,7.7c0,0,0,0,0,0l0.2,0.3l-1.4,5l-0.2,0.8l0.8-0.2l5.1-1.3
	l0.3,0.2l0,0c2.2,1.3,4.8,2,7.4,2h0h0c8,0,14.6-6.5,14.6-14.5c0-3.9-1.5-7.5-4.3-10.3C24.6,3.9,21,2.4,17.1,2.4z M17.1,2.4
	C17.1,2.4,17.1,2.4,17.1,2.4l0,0.5L17.1,2.4C17.1,2.4,17.1,2.4,17.1,2.4z M0.7,33.3l2.2-7.9l0.1-0.2L2.8,25
	c-1.4-2.5-2.2-5.3-2.2-8.2v0c0-9,7.4-16.3,16.4-16.3c4.4,0,8.5,1.7,11.6,4.8l0,0c3.1,3.1,4.8,7.2,4.8,11.6v0c0,9-7.4,16.3-16.4,16.3
	h0c-2.7,0-5.5-0.7-7.9-2L9,31.1l-0.2,0.1L0.7,33.3z"/>
<path class="st0" d="M13.2,13.1c0,0.1,0.1,0.1,0.1,0.2c0,0,0,0.1,0,0.1c0,0,0,0.1,0,0.1C13,13.7,13,13.8,12.8,14l0.4,0.3L12.8,14
	c-0.1,0.1-0.2,0.2-0.3,0.3c-0.1,0.2-0.2,0.3-0.3,0.4c0,0,0,0,0,0c-0.1,0.1-0.3,0.3-0.4,0.5c-0.1,0.3-0.1,0.6,0.1,0.9
	c0.3,0.4,1.1,1.9,2.4,3.1c1.4,1.3,2.7,1.8,3.2,2.1c0.1,0,0.2,0.1,0.2,0.1c0.2,0.1,0.5,0.2,0.8,0.2c0.3,0,0.5-0.2,0.7-0.4
	c0.2-0.3,1.1-1.3,1.4-1.7l0,0l0,0c0-0.1,0.1-0.1,0.1-0.1c0,0,0,0,0,0c0,0,0,0,0.1,0c0.1,0,0.1,0,0.2,0.1c0.2,0.1,0.7,0.3,1.4,0.6
	c0.6,0.3,1.2,0.6,1.4,0.7c0.1,0.1,0.2,0.1,0.3,0.1c0.1,0,0.2,0.1,0.2,0.1c0,0,0.1,0,0.1,0c0,0,0,0,0,0c0,0.1,0,0.2,0,0.4
	c0,0.3-0.1,0.7-0.3,1.2c-0.1,0.3-0.5,0.7-1.1,1.1c-0.5,0.4-1.1,0.6-1.3,0.6c-0.1,0-0.2,0-0.2,0c-0.3,0-0.6,0.1-1.1,0
	c-0.7-0.1-1.7-0.4-3.4-1.1l0,0c-3.8-1.5-6.3-5.3-6.8-6.1c0-0.1-0.1-0.1-0.1-0.1c0,0,0,0,0,0C10,17,9.6,16.5,9.2,15.7
	c-0.4-0.8-0.7-1.7-0.7-2.6c0-1.8,0.8-2.7,1.3-3.1c0,0,0.1-0.1,0.1-0.1c0.3-0.3,0.6-0.4,0.7-0.4c0.3,0,0.6,0,0.8,0v0l0,0
	c0.2,0,0.2,0,0.2,0c0,0,0.1,0.1,0.3,0.4c0.2,0.4,0.5,1.1,0.7,1.8c0,0.1,0,0.1,0.1,0.2c0.1,0.3,0.2,0.5,0.3,0.7
	C13,12.8,13.1,13,13.2,13.1z"/>
</svg>
