<svg width="292" height="53" viewBox="0 0 292 53" fill="none" xmlns="http://www.w3.org/2000/svg">
<path d="M46.322 1H26.394L0 52H8.109L11.183 47.5094L19.875 41.3082L16.907 52H19.61L25.917 28.478L31.959 17.0377C34.185 14.2578 33.178 14.2044 34.185 17.3585L36.729 29.3868L34.98 52H37.895L38.584 42.4308L45.315 50.1824L45.739 52H53L46.322 1Z" fill="#E20338"/>
<path d="M29.5 42C31.9853 42 34 39.9853 34 37.5C34 35.0147 31.9853 33 29.5 33C27.0147 33 25 35.0147 25 37.5C25 39.9853 27.0147 42 29.5 42Z" fill="#E20338"/>
<path d="M75.9922 20.9634H77.4087V24.8883H74.1034V23.5373L66.3482 23.5231V24.8883H63.0429V20.9634H64.1018C64.6169 19.968 65.0318 19.0768 65.3466 18.29C65.6614 17.5031 65.8997 16.6831 66.062 15.8299C66.2337 14.9672 66.3196 14.0239 66.3196 13H75.9778L75.9922 20.9634ZM69.3959 15.517C69.2432 16.4271 69.0096 17.2993 68.6948 18.1336C68.3894 18.9678 67.9841 19.9111 67.4786 20.9634H72.7012V15.5312L69.3959 15.517ZM81.6183 20.2382L85.7821 15.773H89.0731V23.5231H85.7821V19.0437L81.6183 23.5231H78.4275V15.773H81.6183V20.2382ZM100.575 20.8781C100.566 21.8451 100.094 22.5657 99.1588 23.0396C98.2238 23.5042 96.9743 23.7364 95.41 23.7364C94.2747 23.7364 93.3017 23.5753 92.491 23.2529C91.6801 22.9305 91.0696 22.5088 90.6595 21.9873C90.2493 21.4659 90.0443 20.9208 90.0443 20.352H93.2923C93.2923 20.7881 93.4973 21.1151 93.9076 21.3332C94.3176 21.5512 94.8184 21.6697 95.41 21.6887C95.9345 21.7171 96.378 21.665 96.7407 21.5323C97.1127 21.3995 97.2987 21.172 97.2987 20.8497C97.2891 20.6411 97.165 20.4942 96.9267 20.4088C96.6881 20.3235 96.2922 20.2809 95.7391 20.2809H94.3941V18.7166H95.7391C96.3304 18.7166 96.7311 18.6692 96.941 18.5744C97.1507 18.4796 97.2558 18.3469 97.2558 18.1762C97.2558 17.9298 97.0745 17.7496 96.712 17.6359C96.359 17.5126 95.9251 17.451 95.41 17.451C94.8184 17.451 94.3176 17.5174 93.9076 17.6501C93.4973 17.7828 93.2923 17.9961 93.2923 18.29H90.0443C90.0443 17.5979 90.3351 17.0481 90.9171 16.6404C91.5084 16.2233 92.2095 15.9341 93.0204 15.773C93.8407 15.6023 94.6373 15.517 95.41 15.517C96.1634 15.517 96.9124 15.5928 97.6564 15.7445C98.4005 15.8962 99.0347 16.1664 99.5594 16.5551C100.084 16.9343 100.346 17.4557 100.346 18.1193C100.346 18.7261 99.9695 19.1574 99.216 19.4134C100.122 19.6789 100.575 20.1624 100.575 20.8639V20.8781ZM106.725 15.4317C108.089 15.4317 109.315 15.6592 110.403 16.1143C111.49 16.5693 112.034 17.3704 112.034 18.5175V23.5231H108.915L108.671 22.5135V22.4424C108.433 22.869 107.927 23.1818 107.155 23.3809C106.391 23.58 105.557 23.6795 104.651 23.6795C103.926 23.6795 103.201 23.5231 102.476 23.2103C101.751 22.8879 101.388 22.2195 101.388 21.2052C101.388 19.603 102.442 18.8019 104.55 18.8019C105.905 18.8019 106.849 18.7924 107.384 18.7735C107.918 18.745 108.271 18.6977 108.442 18.6313C108.614 18.5555 108.705 18.4227 108.714 18.2331V18.0482C108.705 17.7354 108.495 17.5079 108.085 17.3657C107.684 17.214 107.226 17.1381 106.711 17.1381C106.177 17.1476 105.719 17.2472 105.337 17.4368C104.965 17.6264 104.779 17.9155 104.779 18.3042H101.474C101.474 17.5837 101.76 17.0102 102.333 16.5835C102.905 16.1474 103.587 15.8488 104.379 15.6877C105.18 15.517 105.962 15.4317 106.725 15.4317ZM106.511 21.6034C107.217 21.6034 107.751 21.4469 108.113 21.1341C108.476 20.8212 108.671 20.4231 108.7 19.9396V19.7405C108.337 19.8922 107.76 19.968 106.969 19.968C106.148 19.968 105.571 20.0249 105.237 20.1386C104.913 20.2524 104.746 20.461 104.736 20.7643C104.765 21.0488 104.913 21.2621 105.18 21.4043C105.457 21.537 105.9 21.6034 106.511 21.6034ZM118.589 15.6166C117.607 15.6166 116.81 15.3985 116.199 14.9624C115.589 14.5263 115.284 13.8722 115.284 13H117.158C117.158 13.3697 117.287 13.6731 117.544 13.9101C117.802 14.1376 118.136 14.2514 118.546 14.2514C118.966 14.2514 119.309 14.1376 119.576 13.9101C119.843 13.6731 119.977 13.3697 119.977 13H121.851C121.851 13.8722 121.546 14.5263 120.936 14.9624C120.325 15.3985 119.543 15.6166 118.589 15.6166ZM116.4 20.2382L120.563 15.773H123.854V23.5231H120.563V19.0437L116.4 23.5231H113.209V15.773H116.4V20.2382ZM132.209 18.5744V15.773H135.486V23.5231H132.209V20.6364H128.217V23.5231H125.04V15.773H128.217V18.5744H132.209ZM144.782 20.2382L148.945 15.773H152.236V23.5231H148.945V19.0437L144.782 23.5231H141.591V15.773H144.782V20.2382ZM169.111 19.8258C169.092 20.4989 168.92 21.1388 168.596 21.7456C168.281 22.3524 167.838 22.8452 167.265 23.2245C166.693 23.5942 166.044 23.7791 165.319 23.7791C163.669 23.7791 162.439 23.4093 161.628 22.6699V26.225H158.337V15.773H161.356L161.542 16.7684C162.343 15.9531 163.602 15.5644 165.319 15.6023C166.054 15.6023 166.702 15.7825 167.265 16.1427C167.838 16.503 168.286 16.9959 168.61 17.6216C168.935 18.2473 169.102 18.9489 169.111 19.7263V19.7689V19.8258ZM163.674 21.8451C164.342 21.8451 164.857 21.6413 165.219 21.2336C165.591 20.8165 165.787 20.3235 165.806 19.7547C165.787 19.1006 165.596 18.5649 165.233 18.1478C164.881 17.7212 164.361 17.5079 163.674 17.5079C163.283 17.5079 162.93 17.6074 162.615 17.8065C162.31 17.9961 162.067 18.2568 161.885 18.5886C161.714 18.911 161.628 19.257 161.628 19.6267V19.6552C161.628 20.3188 161.814 20.8497 162.186 21.2478C162.567 21.646 163.063 21.8451 163.674 21.8451ZM175.348 15.4317C176.712 15.4317 177.938 15.6592 179.026 16.1143C180.113 16.5693 180.657 17.3704 180.657 18.5175V23.5231H177.537L177.294 22.5135V22.4424C177.056 22.869 176.55 23.1818 175.777 23.3809C175.014 23.58 174.18 23.6795 173.273 23.6795C172.548 23.6795 171.823 23.5231 171.099 23.2103C170.374 22.8879 170.011 22.2195 170.011 21.2052C170.011 19.603 171.065 18.8019 173.173 18.8019C174.528 18.8019 175.472 18.7924 176.006 18.7735C176.541 18.745 176.894 18.6977 177.065 18.6313C177.237 18.5555 177.327 18.4227 177.337 18.2331V18.0482C177.327 17.7354 177.118 17.5079 176.708 17.3657C176.307 17.214 175.849 17.1381 175.334 17.1381C174.8 17.1476 174.342 17.2472 173.96 17.4368C173.588 17.6264 173.402 17.9155 173.402 18.3042H170.097C170.097 17.5837 170.383 17.0102 170.955 16.5835C171.528 16.1474 172.21 15.8488 173.002 15.6877C173.803 15.517 174.585 15.4317 175.348 15.4317ZM175.134 21.6034C175.839 21.6034 176.374 21.4469 176.736 21.1341C177.099 20.8212 177.294 20.4231 177.323 19.9396V19.7405C176.96 19.8922 176.383 19.968 175.591 19.968C174.771 19.968 174.194 20.0249 173.86 20.1386C173.536 20.2524 173.369 20.461 173.359 20.7643C173.388 21.0488 173.536 21.2621 173.803 21.4043C174.079 21.537 174.523 21.6034 175.134 21.6034ZM192.148 20.8781C192.139 21.8451 191.667 22.5657 190.732 23.0396C189.797 23.5042 188.547 23.7364 186.983 23.7364C185.848 23.7364 184.875 23.5753 184.064 23.2529C183.253 22.9305 182.643 22.5088 182.232 21.9873C181.822 21.4659 181.617 20.9208 181.617 20.352H184.865C184.865 20.7881 185.07 21.1151 185.48 21.3332C185.891 21.5512 186.392 21.6697 186.983 21.6887C187.508 21.7171 187.951 21.665 188.314 21.5323C188.686 21.3995 188.872 21.172 188.872 20.8497C188.862 20.6411 188.738 20.4942 188.5 20.4088C188.261 20.3235 187.865 20.2809 187.312 20.2809H185.967V18.7166H187.312C187.904 18.7166 188.304 18.6692 188.514 18.5744C188.724 18.4796 188.829 18.3469 188.829 18.1762C188.829 17.9298 188.648 17.7496 188.285 17.6359C187.932 17.5126 187.498 17.451 186.983 17.451C186.392 17.451 185.891 17.5174 185.48 17.6501C185.07 17.7828 184.865 17.9961 184.865 18.29H181.617C181.617 17.5979 181.908 17.0481 182.49 16.6404C183.082 16.2233 183.783 15.9341 184.593 15.773C185.414 15.6023 186.21 15.517 186.983 15.517C187.737 15.517 188.485 15.5928 189.229 15.7445C189.973 15.8962 190.608 16.1664 191.132 16.5551C191.657 16.9343 191.919 17.4557 191.919 18.1193C191.919 18.7261 191.543 19.1574 190.789 19.4134C191.695 19.6789 192.148 20.1624 192.148 20.8639V20.8781ZM203.879 19.8258C203.86 20.4989 203.688 21.1388 203.363 21.7456C203.049 22.3524 202.605 22.8452 202.033 23.2245C201.46 23.5942 200.812 23.7791 200.087 23.7791C198.437 23.7791 197.206 23.4093 196.395 22.6699V26.225H193.104V15.773H196.123L196.309 16.7684C197.111 15.9531 198.37 15.5644 200.087 15.6023C200.821 15.6023 201.47 15.7825 202.033 16.1427C202.605 16.503 203.054 16.9959 203.378 17.6216C203.702 18.2473 203.869 18.9489 203.879 19.7263V19.7689V19.8258ZM198.441 21.8451C199.109 21.8451 199.624 21.6413 199.987 21.2336C200.359 20.8165 200.554 20.3235 200.573 19.7547C200.554 19.1006 200.364 18.5649 200.001 18.1478C199.648 17.7212 199.128 17.5079 198.441 17.5079C198.05 17.5079 197.697 17.6074 197.382 17.8065C197.077 17.9961 196.834 18.2568 196.653 18.5886C196.481 18.911 196.395 19.257 196.395 19.6267V19.6552C196.395 20.3188 196.581 20.8497 196.953 21.2478C197.335 21.646 197.831 21.8451 198.441 21.8451ZM210.116 15.4317C211.48 15.4317 212.706 15.6592 213.793 16.1143C214.88 16.5693 215.424 17.3704 215.424 18.5175V23.5231H212.305L212.062 22.5135V22.4424C211.823 22.869 211.318 23.1818 210.545 23.3809C209.782 23.58 208.947 23.6795 208.041 23.6795C207.316 23.6795 206.591 23.5231 205.866 23.2103C205.141 22.8879 204.779 22.2195 204.779 21.2052C204.779 19.603 205.833 18.8019 207.941 18.8019C209.295 18.8019 210.24 18.7924 210.774 18.7735C211.308 18.745 211.661 18.6977 211.833 18.6313C212.004 18.5555 212.095 18.4227 212.105 18.2331V18.0482C212.095 17.7354 211.885 17.5079 211.475 17.3657C211.074 17.214 210.617 17.1381 210.101 17.1381C209.567 17.1476 209.109 17.2472 208.728 17.4368C208.356 17.6264 208.17 17.9155 208.17 18.3042H204.865C204.865 17.5837 205.151 17.0102 205.723 16.5835C206.295 16.1474 206.977 15.8488 207.769 15.6877C208.57 15.517 209.352 15.4317 210.116 15.4317ZM209.901 21.6034C210.607 21.6034 211.141 21.4469 211.504 21.1341C211.866 20.8212 212.062 20.4231 212.09 19.9396V19.7405C211.728 19.8922 211.151 19.968 210.359 19.968C209.538 19.968 208.961 20.0249 208.628 20.1386C208.303 20.2524 208.136 20.461 208.127 20.7643C208.155 21.0488 208.303 21.2621 208.57 21.4043C208.847 21.537 209.291 21.6034 209.901 21.6034ZM227.488 19.9396V19.9538C227.479 21.2241 226.982 22.1768 226.001 22.8121C225.026 23.4378 223.744 23.7506 222.151 23.7506C220.377 23.7506 219.022 23.4189 218.087 22.7552C217.153 22.0915 216.59 20.9966 216.399 19.4703C216.39 19.3281 216.385 19.1148 216.385 18.8304C216.385 17.2851 216.685 16.1238 217.286 15.3464C217.887 14.5595 218.612 14.057 219.461 13.839C220.32 13.6115 221.316 13.4977 222.451 13.4977H222.48C222.89 13.5167 223.372 13.4977 223.925 13.4408C224.487 13.384 224.769 13.237 224.769 13L227.673 13.0142C227.673 13.839 227.425 14.4552 226.931 14.8629C226.444 15.261 225.833 15.517 225.098 15.6308C224.364 15.7351 223.444 15.7872 222.337 15.7872C221.04 15.7872 220.2 16.266 219.819 17.2235C220.286 17.0149 220.806 16.8774 221.378 16.8111C221.951 16.7352 222.566 16.6973 223.224 16.6973C224.503 16.6973 225.527 16.9817 226.301 17.5505C227.083 18.1099 227.479 18.9015 227.488 19.9253V19.9396ZM222.323 21.4043C222.8 21.4043 223.234 21.3095 223.625 21.1199C224.025 20.9208 224.226 20.5179 224.226 19.9111C224.226 19.3423 224.035 18.9441 223.653 18.7166C223.272 18.4796 222.8 18.3611 222.237 18.3611C221.417 18.3706 220.811 18.4654 220.42 18.6455C220.038 18.8256 219.814 19.1006 219.747 19.4703C219.738 19.5461 219.733 19.6504 219.733 19.7831C219.733 20.314 219.881 20.698 220.176 20.935C220.482 21.172 220.792 21.3095 221.106 21.3474C221.431 21.3853 221.836 21.4043 222.323 21.4043ZM234.148 15.4459C235.178 15.4459 236.109 15.626 236.938 15.9863C237.767 16.3465 238.416 16.849 238.883 17.4937C239.35 18.1288 239.585 18.8446 239.585 19.6409C239.585 20.4278 239.346 21.1436 238.87 21.7882C238.402 22.4235 237.754 22.9212 236.922 23.2814C236.102 23.6415 235.178 23.8217 234.148 23.8217C233.155 23.8217 232.225 23.6415 231.358 23.2814C230.49 22.9116 229.793 22.4092 229.267 21.774C228.753 21.1293 228.496 20.4183 228.496 19.6409C228.496 18.8541 228.753 18.1431 229.267 17.5079C229.793 16.8632 230.484 16.3608 231.342 16.0005C232.212 15.6308 233.146 15.4459 234.148 15.4459ZM234.148 21.7882C234.528 21.7882 234.881 21.7076 235.205 21.5465C235.541 21.3853 235.807 21.1436 236.008 20.8212C236.207 20.4894 236.308 20.096 236.308 19.6409C236.308 19.1859 236.207 18.7972 236.008 18.4749C235.807 18.1431 235.541 17.8966 235.205 17.7354C234.881 17.5742 234.528 17.4937 234.148 17.4937C233.774 17.4937 233.408 17.579 233.046 17.7496C232.692 17.9108 232.402 18.1525 232.174 18.4749C231.943 18.7972 231.829 19.1859 231.829 19.6409C231.829 20.096 231.943 20.4847 232.174 20.807C232.402 21.1293 232.692 21.3758 233.046 21.5465C233.408 21.7076 233.774 21.7882 234.148 21.7882ZM250.777 15.773V18.1905H247.213V23.5231H243.922V18.1905H240.316V15.773H250.777ZM258.595 19.2428L262.673 23.5231H258.837L255.188 19.9253V23.5231H251.897V15.773H255.188V18.6028L258.394 15.773H262.271L258.595 19.2428ZM267.988 15.4317C269.351 15.4317 270.576 15.6592 271.665 16.1143C272.752 16.5693 273.295 17.3704 273.295 18.5175V23.5231H270.176L269.933 22.5135V22.4424C269.696 22.869 269.188 23.1818 268.417 23.3809C267.652 23.58 266.818 23.6795 265.913 23.6795C265.188 23.6795 264.462 23.5231 263.737 23.2103C263.013 22.8879 262.651 22.2195 262.651 21.2052C262.651 19.603 263.704 18.8019 265.812 18.8019C267.167 18.8019 268.11 18.7924 268.645 18.7735C269.179 18.745 269.532 18.6977 269.705 18.6313C269.877 18.5555 269.966 18.4227 269.975 18.2331V18.0482C269.966 17.7354 269.756 17.5079 269.347 17.3657C268.947 17.214 268.488 17.1381 267.972 17.1381C267.438 17.1476 266.981 17.2472 266.599 17.4368C266.228 17.6264 266.04 17.9155 266.04 18.3042H262.736C262.736 17.5837 263.022 17.0102 263.594 16.5835C264.167 16.1474 264.849 15.8488 265.64 15.6877C266.443 15.517 267.223 15.4317 267.988 15.4317ZM267.773 21.6034C268.479 21.6034 269.011 21.4469 269.376 21.1341C269.738 20.8212 269.933 20.4231 269.962 19.9396V19.7405C269.599 19.8922 269.023 19.968 268.231 19.968C267.411 19.968 266.834 20.0249 266.499 20.1386C266.174 20.2524 266.007 20.461 265.998 20.7643C266.027 21.0488 266.174 21.2621 266.443 21.4043C266.718 21.537 267.163 21.6034 267.773 21.6034ZM63 41.4728C63 40.6765 63.2383 39.9608 63.7154 39.3255C64.1923 38.681 64.8458 38.1784 65.6757 37.8182C66.5056 37.458 67.4213 37.2778 68.4229 37.2778C69.3767 37.2778 70.2162 37.4247 70.9412 37.7186C71.6757 38.003 72.267 38.4059 72.7155 38.9274C73.1638 39.4489 73.4595 40.0508 73.6026 40.7334H70.3117C70.2066 40.3068 69.9873 39.9655 69.6535 39.7095C69.3195 39.4535 68.9141 39.3255 68.4372 39.3255C67.8171 39.3255 67.3116 39.5246 66.9205 39.9228C66.5293 40.3114 66.3339 40.8282 66.3339 41.4728C66.3339 42.0985 66.5246 42.6151 66.9062 43.0229C67.2876 43.421 67.7884 43.6201 68.4086 43.6201C68.8951 43.6201 69.3052 43.4921 69.6392 43.2362C69.973 42.9802 70.1923 42.6436 70.2974 42.2265H73.5883C73.4832 42.8711 73.1971 43.4541 72.7298 43.9756C72.2623 44.4971 71.6518 44.9095 70.8983 45.2128C70.1543 45.5161 69.3291 45.6679 68.4229 45.6679C67.4307 45.6679 66.5199 45.4877 65.69 45.1275C64.8601 44.7577 64.2019 44.2554 63.7154 43.6201C63.2383 42.9755 63 42.2596 63 41.4728ZM79.7649 37.2067C81.1289 37.2067 82.3548 37.4342 83.4422 37.8893C84.5297 38.3443 85.0734 39.1453 85.0734 40.2925V45.2981H81.9541L81.7109 44.2885V44.2174C81.4723 44.644 80.9668 44.9568 80.1942 45.1559C79.4309 45.355 78.5963 45.4545 77.6902 45.4545C76.9651 45.4545 76.2401 45.2981 75.5153 44.9853C74.7902 44.6629 74.4278 43.9945 74.4278 42.9802C74.4278 41.378 75.4817 40.5769 77.59 40.5769C78.9444 40.5769 79.8888 40.5674 80.4231 40.5485C80.9572 40.5201 81.3102 40.4727 81.4819 40.4063C81.6536 40.3305 81.7442 40.1977 81.7538 40.0081V39.8233C81.7442 39.5104 81.5343 39.2829 81.1242 39.1407C80.7236 38.9889 80.2657 38.9132 79.7506 38.9132C79.2163 38.9227 78.7584 39.0223 78.377 39.2118C78.005 39.4013 77.819 39.6906 77.819 40.0792H74.5137C74.5137 39.3587 74.7999 38.7852 75.3722 38.3586C75.9445 37.9224 76.6264 37.6238 77.4183 37.4627C78.2196 37.292 79.0016 37.2067 79.7649 37.2067ZM79.5503 43.3784C80.2561 43.3784 80.7902 43.2219 81.1528 42.9091C81.5153 42.5962 81.7109 42.1981 81.7395 41.7146V41.5155C81.3769 41.6672 80.7998 41.743 80.0082 41.743C79.1877 41.743 78.6106 41.7999 78.2768 41.9137C77.9524 42.0274 77.7854 42.2361 77.776 42.5394C77.8046 42.8238 77.9524 43.0371 78.2196 43.1793C78.4962 43.3119 78.9397 43.3784 79.5503 43.3784ZM91.6285 37.3916C90.6461 37.3916 89.8495 37.1736 89.239 36.7374C88.6286 36.3013 88.3232 35.6471 88.3232 34.775H90.1976C90.1976 35.1447 90.3264 35.448 90.584 35.6851C90.8415 35.9126 91.1755 36.0264 91.5856 36.0264C92.0054 36.0264 92.3488 35.9126 92.6158 35.6851C92.8829 35.448 93.0164 35.1447 93.0164 34.775H94.8908C94.8908 35.6471 94.5857 36.3013 93.9751 36.7374C93.3647 37.1736 92.5825 37.3916 91.6285 37.3916ZM89.4393 42.0132L93.6031 37.548H96.894V45.2981H93.6031V40.8187L89.4393 45.2981H86.2485V37.548H89.4393V42.0132ZM108.496 37.548V39.9655H104.934V45.2981H101.643V39.9655H98.0369V37.548H108.496ZM114.812 37.2067C116.176 37.2067 117.402 37.4342 118.489 37.8893C119.577 38.3443 120.12 39.1453 120.12 40.2925V45.2981H117.001L116.758 44.2885V44.2174C116.519 44.644 116.014 44.9568 115.241 45.1559C114.478 45.355 113.643 45.4545 112.737 45.4545C112.012 45.4545 111.287 45.2981 110.562 44.9853C109.837 44.6629 109.475 43.9945 109.475 42.9802C109.475 41.378 110.529 40.5769 112.637 40.5769C113.991 40.5769 114.936 40.5674 115.47 40.5485C116.004 40.5201 116.357 40.4727 116.529 40.4063C116.701 40.3305 116.791 40.1977 116.801 40.0081V39.8233C116.791 39.5104 116.581 39.2829 116.171 39.1407C115.771 38.9889 115.313 38.9132 114.798 38.9132C114.263 38.9227 113.805 39.0223 113.424 39.2118C113.052 39.4013 112.866 39.6906 112.866 40.0792H109.561C109.561 39.3587 109.847 38.7852 110.419 38.3586C110.992 37.9224 111.673 37.6238 112.465 37.4627C113.267 37.292 114.049 37.2067 114.812 37.2067ZM114.597 43.3784C115.303 43.3784 115.837 43.2219 116.2 42.9091C116.562 42.5962 116.758 42.1981 116.786 41.7146V41.5155C116.424 41.6672 115.847 41.743 115.055 41.743C114.235 41.743 113.658 41.7999 113.324 41.9137C112.999 42.0274 112.832 42.2361 112.823 42.5394C112.852 42.8238 112.999 43.0371 113.267 43.1793C113.543 43.3119 113.987 43.3784 114.597 43.3784ZM126.31 42.1554V40.2072H142.05V42.1554H126.31ZM150.914 41.3733L153.89 44.3738H150.828L147.938 41.3591L150.685 38.4865H153.775L150.914 41.3733ZM154.992 41.3733L157.968 44.3738H154.906L152.015 41.3591L154.763 38.4865H157.853L154.992 41.3733ZM158.852 40.0508C158.852 38.9985 159.162 38.0504 159.782 37.2067C160.412 36.363 161.265 35.704 162.343 35.2301C163.431 34.7466 164.633 34.5048 165.949 34.5048C167.132 34.5048 168.2 34.6944 169.154 35.0736C170.108 35.4434 170.89 35.9695 171.501 36.6521C172.111 37.3251 172.517 38.1168 172.717 39.0269H169.054C168.911 38.6476 168.668 38.3206 168.324 38.0457C167.99 37.7613 167.614 37.548 167.194 37.4058C166.774 37.2636 166.364 37.1925 165.963 37.1925C165.401 37.1925 164.852 37.3062 164.318 37.5338C163.793 37.7613 163.364 38.093 163.03 38.5292C162.706 38.9558 162.544 39.4631 162.544 40.0508C162.544 40.6385 162.706 41.1504 163.03 41.5866C163.355 42.0132 163.774 42.3403 164.289 42.5678C164.814 42.7858 165.372 42.8949 165.963 42.8949C166.622 42.8949 167.227 42.7384 167.781 42.4256C168.344 42.1127 168.758 41.6672 169.025 41.0889H172.703C172.493 41.9894 172.083 42.7811 171.472 43.4637C170.862 44.1367 170.084 44.6582 169.14 45.0279C168.196 45.3977 167.132 45.5825 165.949 45.5825C164.642 45.5825 163.445 45.3408 162.358 44.8573C161.28 44.3738 160.426 43.7101 159.796 42.8664C159.167 42.0228 158.852 41.0842 158.852 40.0508ZM184.232 37.548V39.9655H180.669V45.2981H177.378V39.9655H173.772V37.548H184.232ZM190.547 37.2067C191.911 37.2067 193.137 37.4342 194.224 37.8893C195.312 38.3443 195.855 39.1453 195.855 40.2925V45.2981H192.736L192.493 44.2885V44.2174C192.255 44.644 191.749 44.9568 190.976 45.1559C190.213 45.355 189.379 45.4545 188.472 45.4545C187.747 45.4545 187.022 45.2981 186.297 44.9853C185.573 44.6629 185.21 43.9945 185.21 42.9802C185.21 41.378 186.264 40.5769 188.372 40.5769C189.727 40.5769 190.671 40.5674 191.205 40.5485C191.74 40.5201 192.092 40.4727 192.264 40.4063C192.436 40.3305 192.527 40.1977 192.536 40.0081V39.8233C192.527 39.5104 192.317 39.2829 191.906 39.1407C191.506 38.9889 191.048 38.9132 190.533 38.9132C189.999 38.9227 189.541 39.0223 189.159 39.2118C188.787 39.4013 188.601 39.6906 188.601 40.0792H185.296C185.296 39.3587 185.582 38.7852 186.154 38.3586C186.727 37.9224 187.409 37.6238 188.2 37.4627C189.002 37.292 189.784 37.2067 190.547 37.2067ZM190.332 43.3784C191.038 43.3784 191.573 43.2219 191.935 42.9091C192.298 42.5962 192.493 42.1981 192.522 41.7146V41.5155C192.159 41.6672 191.582 41.743 190.79 41.743C189.97 41.743 189.393 41.7999 189.059 41.9137C188.735 42.0274 188.568 42.2361 188.558 42.5394C188.587 42.8238 188.735 43.0371 189.002 43.1793C189.278 43.3119 189.722 43.3784 190.332 43.3784ZM207.805 41.6008C207.786 42.2738 207.614 42.9138 207.29 43.5206C206.975 44.1274 206.532 44.6202 205.959 44.9995C205.387 45.3692 204.738 45.5541 204.013 45.5541C202.363 45.5541 201.132 45.1844 200.322 44.4449V48H197.031V37.548H200.05L200.236 38.5434C201.037 37.7282 202.296 37.3394 204.013 37.3773C204.748 37.3773 205.396 37.5575 205.959 37.9177C206.532 38.2779 206.98 38.771 207.304 39.3966C207.629 40.0223 207.796 40.7238 207.805 41.5013V41.5439V41.6008ZM202.368 43.6201C203.035 43.6201 203.551 43.4164 203.913 43.0086C204.285 42.5916 204.481 42.0985 204.5 41.5297C204.481 40.8756 204.29 40.3399 203.928 39.9228C203.575 39.4962 203.055 39.2829 202.368 39.2829C201.977 39.2829 201.624 39.3824 201.309 39.5815C201.004 39.771 200.76 40.0319 200.579 40.3636C200.408 40.686 200.322 41.032 200.322 41.4017V41.4302C200.322 42.0939 200.508 42.6247 200.88 43.0229C201.261 43.421 201.757 43.6201 202.368 43.6201ZM219.125 37.548V39.9655H215.562V45.2981H212.271V39.9655H208.665V37.548H219.125ZM220.175 40.0508C220.175 38.9985 220.485 38.0504 221.105 37.2067C221.735 36.363 222.588 35.704 223.666 35.2301C224.753 34.7466 225.956 34.5048 227.271 34.5048C228.456 34.5048 229.522 34.6944 230.477 35.0736C231.431 35.4434 232.214 35.9695 232.824 36.6521C233.435 37.3251 233.839 38.1168 234.04 39.0269H230.376C230.233 38.6476 229.989 38.3206 229.647 38.0457C229.314 37.7613 228.936 37.548 228.516 37.4058C228.098 37.2636 227.687 37.1925 227.286 37.1925C226.723 37.1925 226.175 37.3062 225.641 37.5338C225.116 37.7613 224.686 38.093 224.353 38.5292C224.029 38.9558 223.866 39.4631 223.866 40.0508C223.866 40.6385 224.029 41.1504 224.353 41.5866C224.677 42.0132 225.098 42.3403 225.612 42.5678C226.137 42.7858 226.694 42.8949 227.286 42.8949C227.944 42.8949 228.55 42.7384 229.104 42.4256C229.665 42.1127 230.081 41.6672 230.347 41.0889H234.025C233.815 41.9894 233.406 42.7811 232.795 43.4637C232.185 44.1367 231.407 44.6582 230.463 45.0279C229.518 45.3977 228.456 45.5825 227.271 45.5825C225.965 45.5825 224.767 45.3408 223.68 44.8573C222.602 44.3738 221.749 43.7101 221.119 42.8664C220.49 42.0228 220.175 41.0842 220.175 40.0508ZM240.332 37.2067C241.696 37.2067 242.921 37.4342 244.01 37.8893C245.096 38.3443 245.639 39.1453 245.639 40.2925V45.2981H242.521L242.277 44.2885V44.2174C242.04 44.644 241.535 44.9568 240.761 45.1559C239.999 45.355 239.163 45.4545 238.257 45.4545C237.533 45.4545 236.806 45.2981 236.082 44.9853C235.357 44.6629 234.995 43.9945 234.995 42.9802C234.995 41.378 236.048 40.5769 238.156 40.5769C239.511 40.5769 240.455 40.5674 240.989 40.5485C241.523 40.5201 241.877 40.4727 242.049 40.4063C242.221 40.3305 242.31 40.1977 242.322 40.0081V39.8233C242.31 39.5104 242.1 39.2829 241.691 39.1407C241.291 38.9889 240.833 38.9132 240.318 38.9132C239.784 38.9227 239.326 39.0223 238.943 39.2118C238.572 39.4013 238.387 39.6906 238.387 40.0792H235.08C235.08 39.3587 235.366 38.7852 235.939 38.3586C236.511 37.9224 237.193 37.6238 237.984 37.4627C238.787 37.292 239.569 37.2067 240.332 37.2067ZM240.117 43.3784C240.824 43.3784 241.358 43.2219 241.72 42.9091C242.082 42.5962 242.277 42.1981 242.306 41.7146V41.5155C241.944 41.6672 241.367 41.743 240.575 41.743C239.755 41.743 239.178 41.7999 238.843 41.9137C238.519 42.0274 238.353 42.2361 238.342 42.5394C238.371 42.8238 238.519 43.0371 238.787 43.1793C239.064 43.3119 239.507 43.3784 240.117 43.3784ZM252.194 37.3916C251.213 37.3916 250.417 37.1736 249.807 36.7374C249.196 36.3013 248.89 35.6471 248.89 34.775H250.764C250.764 35.1447 250.893 35.448 251.15 35.6851C251.408 35.9126 251.743 36.0264 252.152 36.0264C252.572 36.0264 252.917 35.9126 253.183 35.6851C253.451 35.448 253.583 35.1447 253.583 34.775H255.459C255.459 35.6471 255.152 36.3013 254.542 36.7374C253.932 37.1736 253.149 37.3916 252.194 37.3916ZM250.006 42.0132L254.171 37.548H257.462V45.2981H254.171V40.8187L250.006 45.2981H246.815V37.548H250.006V42.0132ZM269.063 37.548V39.9655H265.501V45.2981H262.21V39.9655H258.604V37.548H269.063ZM273.031 44.3738H269.971L272.946 41.3733L270.085 38.4865H273.174L275.922 41.3591L273.031 44.3738ZM277.109 44.3738H274.049L277.024 41.3733L274.163 38.4865H277.252L280 41.3591L277.109 44.3738Z" fill="#333333"/>
</svg>
